**ABCDEFGHIJKLMNOPQRSTUVWXYZabcdefghijklmnopqrstuvwxyz**************************
**PARASOLID !"#$%&'()*+,-./:;<=>?@[\]^_`{|}~0123456789**************************
**PART1;
MC=AMD64;
MC_MODEL=Intel64 Family 6 Model 154 Stepping 3, GenuineIntel;
MC_ID=unknown;
OS=Windows_NT;
OS_RELEASE=unknown;
FRU=Parasolid Version 29.0, build 195, 12- 2-2016;
APPL=SOLIDWORKS 2017-2017109;
SITE=;
USER=unknown;
FORMAT=text;
GUISE=transmit;
KEY=e193_0.3m;
FILE=e193_0.3m.x_t;
DATE=Thu Apr 04 14:27:34 2024;
**PART2;
SCH=SCH_2900195_28101;
USFLD_SIZE=0;
**PART3;
**END_OF_HEADER*****************************************************************
T51 : TRANSMIT FILE created by modeller version 290019523 SCH_2900195_28101_1300
6203 0 10 19 CCCCCCCI4 mesh1006 0 I8 polyline1008 0 CCCCCCCCCCZ1 5 2 3 0 0 0 0 0
 0 0 1e3 1e-8 0 0 0 1 0 1 4 81 255 2 2 5 5 1 0 0 0 0 0 0 70 11 CI9 list_type0 0
 1 uI10 notransmit0 0 1 lCCCDCCDI12 finger_index0 0 1 dI12 finger_block1012 0 CZ
3 0 4 T1 0 0 1 20 1 6 6 11 255 4 3 0 1 7 8 1 9 0 0 0 12 33 CCCCCCI4 mesh1006 0 I
8 polyline1008 0 CCCCCCCDI5 owner1040 0 CCCCCCI13 boundary_mesh1006 0 I17 bounda
ry_polyline1008 0 CCCA16 index_map_offset0 0 1 dA9 index_map82 0 A17 node_id_ind
ex_map82 0 A20 schema_embedding_map82 0 A5 child12 0 A14 lowest_node_id0 0 1 dZ7
 15 10 11 0 0 0 0 0 0 1e3 1e-8 4 12 0 1 0 2 1 13 0 14 15 0 0 16 0 17 0 0 0 0 0 0
 100 255 8 4 4 0 0 1 0 0 0 1 0 0 0 1 0 0 0 1 0 ?11 9 1 0 1 12 18 1 0 4 0 0 12 12
 123 19 20 0 0 0 0 0 0 1e3 1e-8 9 21 7 1 0 1 1 22 23 24 0 0 0 25 26 0 0 0 0 0 0
 0 100 18 2 9 0 0 1 0 0 0 1 0 0 0 1 0 0 0 1 0 ?81 1 19 123 27 12 0 0 0 0 0 70 20
 0 4 T12 0 0 3 20 1 28 28 13 255 22 29 0 12 0 29 0 0 30 0 51 255 23 28 0 31 32 0
 0 -0 0 .03 0 0 -1 15 -1 0 0 31 255 24 23 0 33 34 0 0 +0 0 -.03 0 0 1 1 0 0 15 1
9 8 CCCCCCCA5 owner12 0 Z25 7 0 12 30 0 35 V0 16 255 26 4 0 ?36 0 33 34 0 0 12 1
7 255 36 0 37 36 36 0 38 26 0 0 +16 33 18 0 ?39 26 40 24 0 0 12 31 34 5 0 26 41
 24 0 +0 0 .03 0 0 1 1 0 0 15 134 255 41 73 0 42 43 34 0 +44 45 16 42 49 0 ?46 4
0 0 41 0 0 12 134 43 74 0 40 0 41 47 +48 49 136 255 44 3 63 3 67 2 TTF1 50 51 52
 135 255 45 2 0 45 255 189 50 .2978112197579195 .000119349423063566 -.03 .300551
022228361 -526345465619485e-19 -.03 .297856859750338 .0002924457361176025 -.03 .
2957235111652925 .000726892038601411 -.03 .290679302282304 .001679480421229385 -
.03 .2846359596865635 .002897374280723675 -.03 .2768798790458295 .00434451547557
609 -.03 .2678204280476745 .00595277122047384 -.03 .257455385672593 .00774224419
698835 -.03 .2459678421385545 .0097066181298092 -.03 .233506042755824 .011791266
4082305 -.03 .220251698882361 .01397392138828392 -.03 .206381961989243 .01618168
418907705 -.03 .192087853073807 .0183684631142761 -.03 .177558664746052 .0204566
072205481 -.03 .1629700582463245 .0223599488554891 -.03 .1484557151339728 .02392
448235380365 -.03 .1341246041376516 .02506971105114515 -.03 .1200622444754486 .0
2573413605461625 -.03 .1063482713846966 .02589797578071215 -.03 .093055711097071
7 .02555539156992735 -.03 .080265928232374 .02472930552016255 -.03 .068072226575
361 .0235171246441329 -.03 .0565871963367384 .02196242685612745 -.03 .0459259917
592067 .02011777957938245 -.03 .03619595437579525 .01801849562633855 -.03 .02748
766289409285 .01571945797363345 -.03 .01988558919085245 .0132615398947408 -.03 .
0134452540215748 .01069960388863144 -.03 .00824407037225589 .00809833976542841 -
.03 .00422106589714552 .00554020578422956 -.03 .001631332115640345 .003090369577
685965 -.03 -.0001755531827596995 .000951021203870357 -.03 .00024362162350237 -.
00156434218405374 -.03 .002944995841657375 -.002756524440923575 -.03 .0065372852
6892578 -.00398019808086677 -.03 .01187036708617224 -.00489179369343395 -.03 .01
86191428957802 -.00562028914467634 -.03 .0268721866790343 -.00609035156959245 -.
03 .036521534761817 -.00633881410385371 -.03 .047501784125513 -.0063567845832149
1 -.03 .0597032435624576 -.00619345675329997 -.03 .0730044392189791 -.0058695804
5111134 -.03 .0872610974217293 -.00541976517230945 -.03 .1023136205171024 -.0048
7871635833439 -.03 .1179871222841784 -.004282217578645335 -.03 .134096773033089
 -.003664032423414215 -.03 .1504464151806095 -.00304805109691009 -.03 .166833269
88255 -.00246374879571803 -.03 .1830522522896965 -.001928225129086355 -.03 .1989
011809035345 -.001450476518744132 -.03 .2141814076578555 -.001047995637822832 -.
03 .2286992423005345 -.000713948731240478 -.03 .242271153811748 -.00045764654487
7627 -.03 .2547178261471365 -.000266896562040738 -.03 .2658917222068905 -.000145
0761440926762 -.03 .275612512850038 -58972976194312e-18 -.03 .283894928489289 15
6210954300493e-19 -.03 .290305617376196 .000116640601254722 -.03 .29559630952117
85 899610797481541e-19 -.03 .2978112197579195 .000119349423063566 -.03 .30055102
2228361 -526345465619485e-19 -.03 .297856859750338 .0002924457361176025 -.03 127
 255 67 51 1 1 1 1 1 1 1 1 1 1 1 1 1 1 1 1 1 1 1 1 1 1 1 1 1 1 1 1 1 1 1 1 1 1 1
 1 1 1 1 1 1 1 1 1 1 1 1 1 1 1 1 1 1 1 1 1 1 1 1 1 1 1 1 1 1 1 1 128 255 67 52 -
.0147532326332842 -.00669611929807468 -.00169944491595164 0 .00168729220087391 .
00661588248411182 .01446555801795944 .0249241981499137 .0377997085441562 .052988
4695039723 .0703168037250743 .0895351086225911 .1103602480291006 .13250112333106
06 .155650768536403 .1794841742549325 .2036729019410035 .2278952369533455 .25189
2314116109 .2755168645040985 .2986452837961505 .321169244807871 .343005232415743
5 .3640746928952845 .3842360261994135 .403304982230054 .421105994965221 .4374751
646985845 .452282795180976 .465414650390337 .476784492986743 .486339783512584 .4
94068892828919 .499998920706757 .50417047164572 .50699716321139 .511089714620469
 .517452454166951 .526208560994422 .537391702367061 .550962222745954 .5668413176
8037 .584909639607616 .60499738601005 .626900912127429 .650394480538586 .6752016
21876448 .701035251973763 .727593371026262 .75454969106252 .781563238843302 .808
298626444608 .834420906260716 .859605071481756 .883531629396658 .905895720386451
 .926412444949588 .944811580614751 .960857577393262 .974373752859433 .9852467673
66716 .993303880701925 .998300555084048 1 1.001687292200874 1.006615882484112 1.
01446555801796 16 40 53 0 ?53 33 42 43 0 0 12 141 255 47 54 47 47 43 136 48 3 63
 3 67 2 TTF1 55 56 57 135 49 2 0 45 189 55 .2978112197579195 .000119349423063566
 .03 .300551022228361 -526345465619485e-19 .03 .297856859750338 .000292445736117
6025 .03 .2957235111652925 .000726892038601411 .03 .290679302282304 .00167948042
1229385 .03 .2846359596865635 .002897374280723675 .03 .2768798790458295 .0043445
1547557609 .03 .2678204280476745 .00595277122047384 .03 .257455385672593 .007742
24419698835 .03 .2459678421385545 .0097066181298092 .03 .233506042755824 .011791
2664082305 .03 .220251698882361 .01397392138828392 .03 .206381961989243 .0161816
8418907705 .03 .192087853073807 .0183684631142761 .03 .177558664746052 .02045660
72205481 .03 .1629700582463245 .0223599488554891 .03 .1484557151339728 .02392448
235380365 .03 .1341246041376516 .02506971105114515 .03 .1200622444754486 .025734
13605461625 .03 .1063482713846966 .02589797578071215 .03 .0930557110970717 .0255
5539156992735 .03 .080265928232374 .02472930552016255 .03 .068072226575361 .0235
171246441329 .03 .0565871963367384 .02196242685612745 .03 .0459259917592067 .020
11777957938245 .03 .03619595437579525 .01801849562633855 .03 .02748766289409285
 .01571945797363345 .03 .01988558919085245 .0132615398947408 .03 .01344525402157
48 .01069960388863144 .03 .00824407037225589 .00809833976542841 .03 .00422106589
714552 .00554020578422956 .03 .001631332115640345 .003090369577685965 .03 -.0001
755531827596995 .000951021203870357 .03 .00024362162350237 -.00156434218405374 .
03 .002944995841657375 -.002756524440923575 .03 .00653728526892578 -.00398019808
086677 .03 .01187036708617224 -.00489179369343395 .03 .0186191428957802 -.005620
28914467634 .03 .0268721866790343 -.00609035156959245 .03 .036521534761817 -.006
33881410385371 .03 .047501784125513 -.00635678458321491 .03 .0597032435624576 -.
00619345675329997 .03 .0730044392189791 -.00586958045111134 .03 .087261097421729
3 -.00541976517230945 .03 .1023136205171024 -.00487871635833439 .03 .11798712228
41784 -.004282217578645335 .03 .134096773033089 -.003664032423414215 .03 .150446
4151806095 -.00304805109691009 .03 .16683326988255 -.00246374879571803 .03 .1830
522522896965 -.001928225129086355 .03 .1989011809035345 -.001450476518744132 .03
 .2141814076578555 -.001047995637822832 .03 .2286992423005345 -.0007139487312404
78 .03 .242271153811748 -.000457646544877627 .03 .2547178261471365 -.00026689656
2040738 .03 .2658917222068905 -.0001450761440926762 .03 .275612512850038 -589729
76194312e-18 .03 .283894928489289 156210954300493e-19 .03 .290305617376196 .0001
16640601254722 .03 .2955963095211785 899610797481541e-19 .03 .2978112197579195 .
000119349423063566 .03 .300551022228361 -526345465619485e-19 .03 .29785685975033
8 .0002924457361176025 .03 127 67 56 1 1 1 1 1 1 1 1 1 1 1 1 1 1 1 1 1 1 1 1 1 1
 1 1 1 1 1 1 1 1 1 1 1 1 1 1 1 1 1 1 1 1 1 1 1 1 1 1 1 1 1 1 1 1 1 1 1 1 1 1 1 1
 1 1 1 1 1 128 67 57 -.0147532326332842 -.00669611929807468 -.00169944491595164
 0 .00168729220087391 .00661588248411182 .01446555801795944 .0249241981499137 .0
377997085441562 .0529884695039723 .0703168037250743 .0895351086225911 .110360248
0291006 .1325011233310606 .155650768536403 .1794841742549325 .2036729019410035 .
2278952369533455 .251892314116109 .2755168645040985 .2986452837961505 .321169244
807871 .3430052324157435 .3640746928952845 .3842360261994135 .403304982230054 .4
21105994965221 .4374751646985845 .452282795180976 .465414650390337 .476784492986
743 .486339783512584 .494068892828919 .499998920706757 .50417047164572 .50699716
321139 .511089714620469 .517452454166951 .526208560994422 .537391702367061 .5509
62222745954 .56684131768037 .584909639607616 .60499738601005 .626900912127429 .6
50394480538586 .675201621876448 .701035251973763 .727593371026262 .7545496910625
2 .781563238843302 .808298626444608 .834420906260716 .859605071481756 .883531629
396658 .905895720386451 .926412444949588 .944811580614751 .960857577393262 .9743
73752859433 .985246767366716 .993303880701925 .998300555084048 1 1.0016872922008
74 1.006615882484112 1.01446555801796 67 255 54 70 0 58 0 59 0 +43 0 0 -1 .00261
74867991778 14 255 58 56 60 ?0 31 61 22 54 +0 0 0 31 35 50 255 59 2 0 29 54 32 0
 +0 0 .03 0 0 1 1 0 0 14 29 46 62 ?63 0 37 22 59 +0 0 63 0 35 50 32 22 0 63 59 2
3 0 +0 0 -.03 0 0 1 1 0 0 14 63 40 64 ?31 29 65 22 32 -0 0 31 29 35 81 1 64 121
 66 63 67 0 62 68 69 14 31 25 68 ?58 63 70 22 23 -0 0 58 63 35 15 255 65 17 0 71
 63 72 13 35 8 0 0 0 0 0 0 25 29 17 71 0 65 71 71 0 39 33 0 0 -15 72 38 0 46 63
 0 17 46 0 72 46 46 0 73 42 0 0 +17 73 0 74 73 73 0 46 42 0 0 -15 74 61 0 73 58
 0 17 39 0 75 39 39 0 71 33 0 0 +15 75 26 0 39 31 0 81 1 68 122 66 31 76 0 64 0
 77 15 70 24 0 38 31 75 17 38 0 70 38 38 0 36 26 0 0 -80 255 1 66 78 79 9000 1 1
 1 1 1 1 1 1 0 FFFFTFTFFFFFFF1 81 1 76 107 80 31 0 68 67 81 82 82 255 1 77 -2910
45265 80 1 80 0 83 8001 0 0 0 0 3 5 0 0 0 FFFFTFTFFFFFFF2 81 1 67 106 80 63 0 64
 84 76 85 81 1 81 108 80 58 0 60 76 0 86 83 255 3 82 .792156862745098 .819607843
137255 .933333333333333 81 1 60 119 66 58 81 0 0 62 87 83 3 86 .792156862745098
 .819607843137255 .933333333333333 81 1 62 120 66 29 84 0 60 64 88 82 1 87 -2952
39569 81 1 84 105 80 29 0 62 0 67 89 82 1 88 -288817041 83 3 89 .792156862745098
 .819607843137255 .933333333333333 83 3 85 .792156862745098 .819607843137255 .93
3333333333333 79 255 15 83 SDL/TYSA_COLOUR79 14 79 SWEntUnchanged82 1 69 -289341
329 15 37 3 0 36 29 90 15 90 43 0 91 29 0 17 91 0 90 91 91 0 53 40 0 0 -17 53 0
 61 53 53 0 91 40 0 0 +15 61 60 0 53 58 74 19 30 30 0 12 0 25 22 S0 74 4 CI16 in
dex_map_offset0 0 1 dCCZ20 28 3 0 0 68 81 19 0 0 0 0 0 0 0 0 0 0 0 0 0 0 0 0 0 8
0 1 27 92 93 8017 0 0 0 0 0 0 0 0 0 TTTTTTTTTTTTTF3 79 13 93 SDL/TYSA_NAME81 1 1
0 15 27 7 0 0 0 0 0 70 11 0 4 T7 0 0 1 20 1 94 94 13 13 3 0 7 0 0 95 0 16 0 134
 14 6 0 95 0 0 0 +96 97 29 255 15 4 0 17 0 0 .3 -33881317890172e-34 0 19 16 1 0
 7 0 0 13 V0 18 255 17 2 0 98 0 0 15 ?7 17 98 0 0 0 0 17 99 95 0 99 +17 99 0 0 0
 0 17 98 95 0 0 -16 95 5 0 ?98 0 0 14 0 0 13 136 96 3 63 3 67 2 TTF1 100 101 102
 135 97 2 0 45 189 100 .2978112197579195 .000119349423063566 0 .300551022228361
 -526345465619485e-19 0 .297856859750338 .0002924457361176025 0 .295723511165292
5 .000726892038601411 0 .290679302282304 .001679480421229385 0 .2846359596865635
 .002897374280723675 0 .2768798790458295 .00434451547557609 0 .2678204280476745
 .00595277122047384 0 .257455385672593 .00774224419698835 0 .2459678421385545 .0
097066181298092 0 .233506042755824 .0117912664082305 0 .220251698882361 .0139739
2138828392 0 .206381961989243 .01618168418907705 0 .192087853073807 .01836846311
42761 0 .177558664746052 .0204566072205481 0 .1629700582463245 .0223599488554891
 0 .1484557151339728 .02392448235380365 0 .1341246041376516 .02506971105114515 0
 .1200622444754486 .02573413605461625 0 .1063482713846966 .02589797578071215 0 .
0930557110970717 .02555539156992735 0 .080265928232374 .02472930552016255 0 .068
072226575361 .0235171246441329 0 .0565871963367384 .02196242685612745 0 .0459259
917592067 .02011777957938245 0 .03619595437579525 .01801849562633855 0 .02748766
289409285 .01571945797363345 0 .01988558919085245 .0132615398947408 0 .013445254
0215748 .01069960388863144 0 .00824407037225589 .00809833976542841 0 .0042210658
9714552 .00554020578422956 0 .001631332115640345 .003090369577685965 0 -.0001755
531827596995 .000951021203870357 0 .00024362162350237 -.00156434218405374 0 .002
944995841657375 -.002756524440923575 0 .00653728526892578 -.00398019808086677 0
 .01187036708617224 -.00489179369343395 0 .0186191428957802 -.00562028914467634
 0 .0268721866790343 -.00609035156959245 0 .036521534761817 -.00633881410385371
 0 .047501784125513 -.00635678458321491 0 .0597032435624576 -.00619345675329997
 0 .0730044392189791 -.00586958045111134 0 .0872610974217293 -.00541976517230945
 0 .1023136205171024 -.00487871635833439 0 .1179871222841784 -.00428221757864533
5 0 .134096773033089 -.003664032423414215 0 .1504464151806095 -.0030480510969100
9 0 .16683326988255 -.00246374879571803 0 .1830522522896965 -.001928225129086355
 0 .1989011809035345 -.001450476518744132 0 .2141814076578555 -.0010479956378228
32 0 .2286992423005345 -.000713948731240478 0 .242271153811748 -.000457646544877
627 0 .2547178261471365 -.000266896562040738 0 .2658917222068905 -.0001450761440
926762 0 .275612512850038 -58972976194312e-18 0 .283894928489289 156210954300493
e-19 0 .290305617376196 .000116640601254722 0 .2955963095211785 899610797481541e
-19 0 .2978112197579195 .000119349423063566 0 .300551022228361 -526345465619485e
-19 0 .297856859750338 .0002924457361176025 0 127 67 101 1 1 1 1 1 1 1 1 1 1 1 1
 1 1 1 1 1 1 1 1 1 1 1 1 1 1 1 1 1 1 1 1 1 1 1 1 1 1 1 1 1 1 1 1 1 1 1 1 1 1 1 1
 1 1 1 1 1 1 1 1 1 1 1 1 1 1 1 128 67 102 -.0147532326332842 -.00669611929807468
 -.00169944491595164 0 .00168729220087391 .00661588248411182 .01446555801795944
 .0249241981499137 .0377997085441562 .0529884695039723 .0703168037250743 .089535
1086225911 .1103602480291006 .1325011233310606 .155650768536403 .179484174254932
5 .2036729019410035 .2278952369533455 .251892314116109 .2755168645040985 .298645
2837961505 .321169244807871 .3430052324157435 .3640746928952845 .384236026199413
5 .403304982230054 .421105994965221 .4374751646985845 .452282795180976 .46541465
0390337 .476784492986743 .486339783512584 .494068892828919 .499998920706757 .504
17047164572 .50699716321139 .511089714620469 .517452454166951 .526208560994422 .
537391702367061 .550962222745954 .56684131768037 .584909639607616 .6049973860100
5 .626900912127429 .650394480538586 .675201621876448 .701035251973763 .727593371
026262 .75454969106252 .781563238843302 .808298626444608 .834420906260716 .85960
5071481756 .883531629396658 .905895720386451 .926412444949588 .944811580614751 .
960857577393262 .974373752859433 .985246767366716 .993303880701925 .998300555084
048 1 1.001687292200874 1.006615882484112 1.01446555801796 74 20 94 1 0 0 10 0 0
 0 0 0 0 0 0 0 0 0 0 0 0 0 0 0 0 0 74 20 6 1 0 0 2 0 0 0 0 0 0 0 0 0 0 0 0 0 0 0
 0 0 0 0 80 2 5 103 104 9000 0 0 0 0 3 5 0 0 0 TFFFFFFFFFFFFF9 1 79 18 104 MULTI
_BODY_ID_20011 0 
