**ABCDEFGHIJKLMNOPQRSTUVWXYZabcdefghijklmnopqrstuvwxyz**************************
**PARASOLID !"#$%&'()*+,-./:;<=>?@[\]^_`{|}~0123456789**************************
**PART1;
MC=AMD64;
MC_MODEL=Intel64 Family 6 Model 186 Stepping 3, GenuineIntel;
MC_ID=unknown;
OS=Windows_NT;
OS_RELEASE=unknown;
FRU=Parasolid Version 29.0, build 195, 12- 2-2016;
APPL=SOLIDWORKS 2017-2017109;
SITE=;
USER=unknown;
FORMAT=text;
GUISE=transmit;
KEY=naca_0012_0.6096;
FILE=naca_0012_0.6096.x_t;
DATE=Fri Mar 01 16:11:31 2024;
**PART2;
SCH=SCH_2900195_28101;
USFLD_SIZE=0;
**PART3;
**END_OF_HEADER*****************************************************************
T51 : TRANSMIT FILE created by modeller version 290019523 SCH_2900195_28101_1300
6203 0 12 33 CCCCCCI4 mesh1006 0 I8 polyline1008 0 CCCCCCCDI5 owner1040 0 CCCCCC
I13 boundary_mesh1006 0 I17 boundary_polyline1008 0 CCCA16 index_map_offset0 0 1
 dA9 index_map82 0 A17 node_id_index_map82 0 A20 schema_embedding_map82 0 A5 chi
ld12 0 A14 lowest_node_id0 0 1 dZ1 118 0 2 0 0 0 0 0 0 1e3 1e-8 0 3 0 1 0 1 1 4
 5 6 0 0 0 7 8 0 0 0 0 0 0 0 70 11 CI9 list_type0 0 1 uI10 notransmit0 0 1 lCCCD
CCDI12 finger_index0 0 1 dI12 finger_block1012 0 CZ2 0 4 T1 0 0 2 20 1 9 9 13 25
5 4 29 0 1 0 10 0 0 11 0 51 255 5 28 0 12 13 0 0 -0 0 .12192 0 0 -1 30.48 -1 0 0
 31 255 6 23 0 14 15 0 0 +0 0 0 0 0 1 1 0 0 30.48 19 8 CCCCCCCA5 owner12 0 Z7 7
 0 1 11 0 16 V0 16 255 8 4 0 ?17 0 14 15 0 0 1 17 255 17 0 18 17 17 0 19 8 0 0 +
16 14 18 0 ?20 8 21 6 0 0 1 31 15 5 0 8 22 6 0 +0 0 .12192 0 0 1 1 0 0 30.48 134
 255 22 73 0 23 24 15 0 +25 26 16 23 49 0 ?27 21 0 22 0 0 1 134 24 74 0 21 0 22
 28 +29 30 136 255 25 3 153 3 157 2 TTF1 31 32 33 135 255 26 2 0 45 255 459 31 .
609026600723997 -649900751815252e-19 0 .609743521376251 -1216339312257174e-33 0
 .609026600723997 649900751815312e-19 0 .608434767900426 .0001812264315404295 0
 .606982031384372 .0003744603928246555 0 .605170832321289 .000642870250711353 0
 .602759875483166 .000986789867111129 0 .599853785309487 .001402747774292124 0 .
596420052816498 .00188937961615334 0 .592478157132741 .002445307987115195 0 .588
030463539284 .00306578899853619 0 .583086436220917 .003749671558163455 0 .577653
844904966 .0044919089177736 0 .571742714485225 .00529146686524034 0 .56536331787
1176 .00614306525855016 0 .558526733426889 .00704351782345002 0 .551245154967076
 .00798902076977611 0 .543531080963299 .00897511952413738 0 .53539834803518 .009
9995052893117 0 .526860963094166 .01105641147911332 0 .517933767222701 .01214178
35399762 0 .508633058212342 .0132534094939068 0 .498974520358023 .01438433784036
88 0 .488975527473465 .0155328714696014 0 .478653256963089 .0166941764315264 0 .
468025945058456 .0178633209757008 0 .457112240421422 .0190357667581051 0 .445931
699122296 .0202096465833874 0 .434503313508911 .02137794212176355 0 .42284742832
18555 .0225381760746275 0 .4109842732725495 .0236850482456446 0 .398934895517607
 .0248131329223037 0 .386720444937814 .02592016316857745 0 .3743624264437415 .02
699908038556915 0 .3618823337722555 .0280467784576064 0 .349302073434196 .029058
0285456167 0 .336643533947729 .0300270333272432 0 .3239291152049005 .03094934271
34248 0 .3111813449639315 .0318197227295067 0 .2984224435228845 .032634120884602
6 0 .2856745905225535 .033384881258023 0 .272960120626968 .0340700560065496 0 .2
603014877454695 .03468328667937115 0 .247721025079832 .0352189817259111 0 .23524
07111121345 .03567325720445045 0 .2228824771279965 .0360416368936221 0 .21066765
6569876 .036320169071557 0 .1986179709378385 .03650392040092295 0 .1867543631430
61 .0365908239041067 0 .1750979540290795 .03657599055492095 0 .163669045978673 .
036459131780211 0 .1524877887380995 .03623540720119755 0 .141573400808221 .03590
62635973763 0 .130945292405559 .03546714082133485 0 .1206220297751352 .034920473
3380291 0 .110621959439198 .03426460575901745 0 .1009623682466564 .0335002317368
583 0 .0916601765134049 .03262997896013015 0 .0827315541808493 .0316540872878466
5 0 .0741924558830278 .03057565726340525 0 .0660575554192351 .02939793942605955
 0 .0583413184983066 .0281223671881776 0 .0510568704189698 .02675484764837375 0
 .0442170555487253 .02529754818228515 0 .0378335029017729 .02375616291332115 0 .
03191763865139325 .022132931949737 0 .0264786305763954 .0204359071090879 0 .0215
266730137156 .0186661929980101 0 .01706891921463215 .01683006338993475 0 .013112
7046795349 .0149307183485392 0 .0096631338936738 .01297297966025362 0 .006725593
64830512 .01095772567162384 0 .00430291585610377 .00888622488664342 0 .002399833
788509135 .00675579353137347 0 .00102186515950936 .0045626304378332 0 .000185865
4271590365 .00230280920654648 0 -9124321605147e-17 -870068773615131e-31 0 .00018
58654271590395 -.00230280920654643 0 .001021865159509292 -.00456263043783308 0 .
00239983378850923 -.00675579353137359 0 .004302915856103685 -.00888622488664333
 0 .00672559364830521 -.01095772567162392 0 .0096631338936737 -.0129729796602535
4 0 .013112704679535 -.01493071834853924 0 .017068919214632 -.0168300633899347 0
 .02152667301371575 -.01866619299801015 0 .02647863057639525 -.02043590710908785
 0 .03191763865139335 -.02213293194973705 0 .0378335029017728 -.0237561629133211
 0 .0442170555487254 -.02529754818228515 0 .0510568704189697 -.0267548476483737
 0 .0583413184983068 -.0281223671881776 0 .0660575554192349 -.0293979394260595 0
 .0741924558830279 -.03057565726340525 0 .0827315541808492 -.03165408728784665 0
 .091660176513405 -.03262997896013015 0 .1009623682466562 -.0335002317368583 0 .
1106219594391982 -.03426460575901745 0 .120622029775135 -.0349204733380291 0 .13
0945292405559 -.03546714082133485 0 .141573400808221 -.0359062635973763 0 .15248
77887380995 -.0362354072011975 0 .163669045978673 -.03645913178021105 0 .1750979
540290795 -.03657599055492095 0 .186754363143061 -.0365908239041067 0 .198617970
9378385 -.03650392040092295 0 .210667656569876 -.036320169071557 0 .222882477127
9965 -.03604163689362205 0 .2352407111121345 -.03567325720445045 0 .247721025079
8325 -.0352189817259111 0 .2603014877454695 -.03468328667937115 0 .2729601206269
68 -.0340700560065496 0 .2856745905225535 -.033384881258023 0 .2984224435228845
 -.0326341208846026 0 .311181344963931 -.0318197227295067 0 .3239291152049005 -.
0309493427134248 0 .3366435339477285 -.0300270333272432 0 .349302073434196 -.029
0580285456167 0 .3618823337722555 -.02804677845760645 0 .3743624264437415 -.0269
990803855691 0 .386720444937814 -.0259201631685775 0 .398934895517607 -.02481313
29223037 0 .4109842732725495 -.0236850482456446 0 .4228474283218555 -.0225381760
746275 0 .434503313508911 -.02137794212176355 0 .445931699122296 -.0202096465833
874 0 .457112240421421 -.01903576675810515 0 .468025945058456 -.0178633209757008
 0 .478653256963089 -.0166941764315264 0 .488975527473465 -.0155328714696014 0 .
498974520358023 -.0143843378403688 0 .508633058212342 -.0132534094939068 0 .5179
33767222702 -.0121417835399762 0 .526860963094166 -.01105641147911332 0 .5353983
4803518 -.0099995052893117 0 .543531080963299 -.00897511952413738 0 .55124515496
7076 -.00798902076977613 0 .55852673342689 -.00704351782344999 0 .56536331787117
6 -.00614306525855019 0 .571742714485226 -.00529146686524033 0 .577653844904966
 -.004491908917773605 0 .583086436220917 -.003749671558163445 0 .588030463539284
 -.003065788998536185 0 .592478157132742 -.002445307987115205 0 .596420052816497
 -.001889379616153355 0 .599853785309487 -.00140274777429212 0 .602759875483166
 -.000986789867111129 0 .605170832321289 -.000642870250711344 0 .606982031384372
 -.0003744603928246655 0 .608434767900426 -.0001812264315404395 0 .6090266007239
97 -649900751815252e-19 0 .609743521376251 -1216339312257174e-33 0 .609026600723
997 649900751815312e-19 0 127 255 157 32 1 1 1 1 1 1 1 1 1 1 1 1 1 1 1 1 1 1 1 1
 1 1 1 1 1 1 1 1 1 1 1 1 1 1 1 1 1 1 1 1 1 1 1 1 1 1 1 1 1 1 1 1 1 1 1 1 1 1 1 1
 1 1 1 1 1 1 1 1 1 1 1 1 1 1 1 1 1 1 1 1 1 1 1 1 1 1 1 1 1 1 1 1 1 1 1 1 1 1 1 1
 1 1 1 1 1 1 1 1 1 1 1 1 1 1 1 1 1 1 1 1 1 1 1 1 1 1 1 1 1 1 1 1 1 1 1 1 1 1 1 1
 1 1 1 1 1 1 1 1 1 1 1 1 1 1 1 1 1 128 255 157 33 -.001953585765878565 -.0008690
69557949076 -.0002175274093191295 0 .0002175274093191135 .000869069557949157 .00
19535857658787 .00346899362156448 .00541279845327914 .00778132366559088 .0105704
8058401772 .0137752106111278 .0173892810734919 .02140611392567125 .0258190002127
9805 .0306199115221587 .03579965364568535 .0413491032937559 .0472591458306939 .0
535176898951425 .0601147198332138 .067038584375729 .0742757530921176 .0818147685
846495 .0896410256847508 .0977411302218903 .1061010943689628 .1147059091150104 .
1235396570731904 .1325875052049786 .141832961464854 .1512601836133995 .160852266
9704225 .1705923222732255 .180462588032333 .190446648941232 .200525753603755 .21
06830831218635 .220900825107802 .231160257408798 .2414436653770535 .251732878052
9515 .2620101897049345 .2722575695234125 .2824574361413025 .29259128926651 .3026
417124299325 .3125923321879765 .322424883036641 .3321236305704355 .3416714698023
85 .3510523607011035 .3602503589760815 .3692506071289075 .3780378338160565 .3865
98392071256 .394917693313771 .4029822985905825 .4107798435701695 .41829852606388
3 .4255257837430855 .4324520854159675 .4390661116844715 .4453588403893425 .45132
2797632736 .456949062427175 .462232026972139 .467166869862672 .471749135008129 .
475977204654465 .47985209148139 .483377312523538 .486560001784983 .4894138674661
64 .491960637690815 .494233583495147 .496281470591133 .498174536343671 .5 .50182
546365633 .503718529408868 .505766416504853 .508039362309186 .510586132533837 .5
13439998215018 .516622687476463 .520147908518611 .524022795345535 .5282508649918
72 .532833130137329 .537767973027862 .543050937572825 .548677202367265 .55464115
9610658 .560933888315529 .567547914584033 .574474216256915 .581701473936118 .589
220156429831 .597017701409418 .60508230668623 .613401607928745 .621962166183944
 .630749392871093 .639749641023919 .648947639298897 .658328530197616 .6678763694
29565 .67757511696336 .687407667812024 .697358287570068 .707408710733491 .717542
563858698 .727742430476588 .737989810295066 .748267121947049 .758556334622947 .7
68839742591203 .779099174892198 .789316916878137 .799474246396245 .8095533510587
68 .819537411967668 .829407677726775 .839147733029578 .848739816386601 .85816703
8535146 .867412494795022 .87646034292681 .88529409088499 .893898905631038 .90225
886977811 .91035897431525 .918185231415351 .925724246907883 .932961415624271 .93
9885280166787 .946482310104858 .952740854169307 .958650896706244 .96420034635431
5 .969380088477842 .974180999787202 .978593886074329 .982610718926508 .986224789
388872 .989429519415983 .992218676334409 .994587201546721 .996531006378436 .9980
46414234121 .999130930442051 .999782472590681 1 1.00021752740932 1.0008690695579
5 1.00195358576588 16 21 53 0 ?34 14 23 24 0 0 1 141 255 28 35 28 28 24 136 29 3
 153 3 157 2 TTF1 36 37 38 135 30 2 0 45 459 36 .609026600723997 -64990075181525
2e-19 .12192 .609743521376251 -1216339312257174e-33 .12192 .609026600723997 6499
00751815312e-19 .12192 .608434767900426 .0001812264315404295 .12192 .60698203138
4372 .0003744603928246555 .12192 .605170832321289 .000642870250711353 .12192 .60
2759875483166 .000986789867111129 .12192 .599853785309487 .001402747774292124 .1
2192 .596420052816498 .00188937961615334 .12192 .592478157132741 .00244530798711
5195 .12192 .588030463539284 .00306578899853619 .12192 .583086436220917 .0037496
71558163455 .12192 .577653844904966 .0044919089177736 .12192 .571742714485225 .0
0529146686524034 .12192 .565363317871176 .00614306525855016 .12192 .558526733426
889 .00704351782345002 .12192 .551245154967076 .00798902076977611 .12192 .543531
080963299 .00897511952413738 .12192 .53539834803518 .0099995052893117 .12192 .52
6860963094166 .01105641147911332 .12192 .517933767222701 .0121417835399762 .1219
2 .508633058212342 .0132534094939068 .12192 .498974520358023 .0143843378403688 .
12192 .488975527473465 .0155328714696014 .12192 .478653256963089 .01669417643152
64 .12192 .468025945058456 .0178633209757008 .12192 .457112240421422 .0190357667
581051 .12192 .445931699122296 .0202096465833874 .12192 .434503313508911 .021377
94212176355 .12192 .4228474283218555 .0225381760746275 .12192 .4109842732725495
 .0236850482456446 .12192 .398934895517607 .0248131329223037 .12192 .38672044493
7814 .02592016316857745 .12192 .3743624264437415 .02699908038556915 .12192 .3618
823337722555 .0280467784576064 .12192 .349302073434196 .0290580285456167 .12192
 .336643533947729 .0300270333272432 .12192 .3239291152049005 .0309493427134248 .
12192 .3111813449639315 .0318197227295067 .12192 .2984224435228845 .032634120884
6026 .12192 .2856745905225535 .033384881258023 .12192 .272960120626968 .03407005
60065496 .12192 .2603014877454695 .03468328667937115 .12192 .247721025079832 .03
52189817259111 .12192 .2352407111121345 .03567325720445045 .12192 .2228824771279
965 .0360416368936221 .12192 .210667656569876 .036320169071557 .12192 .198617970
9378385 .03650392040092295 .12192 .186754363143061 .0365908239041067 .12192 .175
0979540290795 .03657599055492095 .12192 .163669045978673 .036459131780211 .12192
 .1524877887380995 .03623540720119755 .12192 .141573400808221 .0359062635973763
 .12192 .130945292405559 .03546714082133485 .12192 .1206220297751352 .0349204733
380291 .12192 .110621959439198 .03426460575901745 .12192 .1009623682466564 .0335
002317368583 .12192 .0916601765134049 .03262997896013015 .12192 .082731554180849
3 .03165408728784665 .12192 .0741924558830278 .03057565726340525 .12192 .0660575
554192351 .02939793942605955 .12192 .0583413184983066 .0281223671881776 .12192 .
0510568704189698 .02675484764837375 .12192 .0442170555487253 .02529754818228515
 .12192 .0378335029017729 .02375616291332115 .12192 .03191763865139325 .02213293
1949737 .12192 .0264786305763954 .0204359071090879 .12192 .0215266730137156 .018
6661929980101 .12192 .01706891921463215 .01683006338993475 .12192 .0131127046795
349 .0149307183485392 .12192 .0096631338936738 .01297297966025362 .12192 .006725
59364830512 .01095772567162384 .12192 .00430291585610377 .00888622488664342 .121
92 .002399833788509135 .00675579353137347 .12192 .00102186515950936 .00456263043
78332 .12192 .0001858654271590365 .00230280920654648 .12192 -9124321605147e-17 -
870068773615131e-31 .12192 .0001858654271590395 -.00230280920654643 .12192 .0010
21865159509292 -.00456263043783308 .12192 .00239983378850923 -.00675579353137359
 .12192 .004302915856103685 -.00888622488664333 .12192 .00672559364830521 -.0109
5772567162392 .12192 .0096631338936737 -.01297297966025354 .12192 .0131127046795
35 -.01493071834853924 .12192 .017068919214632 -.0168300633899347 .12192 .021526
67301371575 -.01866619299801015 .12192 .02647863057639525 -.02043590710908785 .1
2192 .03191763865139335 -.02213293194973705 .12192 .0378335029017728 -.023756162
9133211 .12192 .0442170555487254 -.02529754818228515 .12192 .0510568704189697 -.
0267548476483737 .12192 .0583413184983068 -.0281223671881776 .12192 .06605755541
92349 -.0293979394260595 .12192 .0741924558830279 -.03057565726340525 .12192 .08
27315541808492 -.03165408728784665 .12192 .091660176513405 -.03262997896013015 .
12192 .1009623682466562 -.0335002317368583 .12192 .1106219594391982 -.0342646057
5901745 .12192 .120622029775135 -.0349204733380291 .12192 .130945292405559 -.035
46714082133485 .12192 .141573400808221 -.0359062635973763 .12192 .15248778873809
95 -.0362354072011975 .12192 .163669045978673 -.03645913178021105 .12192 .175097
9540290795 -.03657599055492095 .12192 .186754363143061 -.0365908239041067 .12192
 .1986179709378385 -.03650392040092295 .12192 .210667656569876 -.036320169071557
 .12192 .2228824771279965 -.03604163689362205 .12192 .2352407111121345 -.0356732
5720445045 .12192 .2477210250798325 -.0352189817259111 .12192 .2603014877454695
 -.03468328667937115 .12192 .272960120626968 -.0340700560065496 .12192 .28567459
05225535 -.033384881258023 .12192 .2984224435228845 -.0326341208846026 .12192 .3
11181344963931 -.0318197227295067 .12192 .3239291152049005 -.0309493427134248 .1
2192 .3366435339477285 -.0300270333272432 .12192 .349302073434196 -.029058028545
6167 .12192 .3618823337722555 -.02804677845760645 .12192 .3743624264437415 -.026
9990803855691 .12192 .386720444937814 -.0259201631685775 .12192 .398934895517607
 -.0248131329223037 .12192 .4109842732725495 -.0236850482456446 .12192 .42284742
83218555 -.0225381760746275 .12192 .434503313508911 -.02137794212176355 .12192 .
445931699122296 -.0202096465833874 .12192 .457112240421421 -.01903576675810515 .
12192 .468025945058456 -.0178633209757008 .12192 .478653256963089 -.016694176431
5264 .12192 .488975527473465 -.0155328714696014 .12192 .498974520358023 -.014384
3378403688 .12192 .508633058212342 -.0132534094939068 .12192 .517933767222702 -.
0121417835399762 .12192 .526860963094166 -.01105641147911332 .12192 .53539834803
518 -.0099995052893117 .12192 .543531080963299 -.00897511952413738 .12192 .55124
5154967076 -.00798902076977613 .12192 .55852673342689 -.00704351782344999 .12192
 .565363317871176 -.00614306525855019 .12192 .571742714485226 -.0052914668652403
3 .12192 .577653844904966 -.004491908917773605 .12192 .583086436220917 -.0037496
71558163445 .12192 .588030463539284 -.003065788998536185 .12192 .592478157132742
 -.002445307987115205 .12192 .596420052816497 -.001889379616153355 .12192 .59985
3785309487 -.00140274777429212 .12192 .602759875483166 -.000986789867111129 .121
92 .605170832321289 -.000642870250711344 .12192 .606982031384372 -.0003744603928
246655 .12192 .608434767900426 -.0001812264315404395 .12192 .609026600723997 -64
9900751815252e-19 .12192 .609743521376251 -1216339312257174e-33 .12192 .60902660
0723997 649900751815312e-19 .12192 127 157 37 1 1 1 1 1 1 1 1 1 1 1 1 1 1 1 1 1
 1 1 1 1 1 1 1 1 1 1 1 1 1 1 1 1 1 1 1 1 1 1 1 1 1 1 1 1 1 1 1 1 1 1 1 1 1 1 1 1
 1 1 1 1 1 1 1 1 1 1 1 1 1 1 1 1 1 1 1 1 1 1 1 1 1 1 1 1 1 1 1 1 1 1 1 1 1 1 1 1
 1 1 1 1 1 1 1 1 1 1 1 1 1 1 1 1 1 1 1 1 1 1 1 1 1 1 1 1 1 1 1 1 1 1 1 1 1 1 1 1
 1 1 1 1 1 1 1 1 1 1 1 1 1 1 1 1 1 1 1 1 128 157 38 -.001953585765878565 -.00086
9069557949076 -.0002175274093191295 0 .0002175274093191135 .000869069557949157 .
0019535857658787 .00346899362156448 .00541279845327914 .00778132366559088 .01057
048058401772 .0137752106111278 .0173892810734919 .02140611392567125 .02581900021
279805 .0306199115221587 .03579965364568535 .0413491032937559 .0472591458306939
 .0535176898951425 .0601147198332138 .067038584375729 .0742757530921176 .0818147
685846495 .0896410256847508 .0977411302218903 .1061010943689628 .114705909115010
4 .1235396570731904 .1325875052049786 .141832961464854 .1512601836133995 .160852
2669704225 .1705923222732255 .180462588032333 .190446648941232 .200525753603755
 .2106830831218635 .220900825107802 .231160257408798 .2414436653770535 .25173287
80529515 .2620101897049345 .2722575695234125 .2824574361413025 .29259128926651 .
3026417124299325 .3125923321879765 .322424883036641 .3321236305704355 .341671469
802385 .3510523607011035 .3602503589760815 .3692506071289075 .3780378338160565 .
386598392071256 .394917693313771 .4029822985905825 .4107798435701695 .4182985260
63883 .4255257837430855 .4324520854159675 .4390661116844715 .4453588403893425 .4
51322797632736 .456949062427175 .462232026972139 .467166869862672 .4717491350081
29 .475977204654465 .47985209148139 .483377312523538 .486560001784983 .489413867
466164 .491960637690815 .494233583495147 .496281470591133 .498174536343671 .5 .5
0182546365633 .503718529408868 .505766416504853 .508039362309186 .51058613253383
7 .513439998215018 .516622687476463 .520147908518611 .524022795345535 .528250864
991872 .532833130137329 .537767973027862 .543050937572825 .548677202367265 .5546
41159610658 .560933888315529 .567547914584033 .574474216256915 .581701473936118
 .589220156429831 .597017701409418 .60508230668623 .613401607928745 .62196216618
3944 .630749392871093 .639749641023919 .648947639298897 .658328530197616 .667876
369429565 .67757511696336 .687407667812024 .697358287570068 .707408710733491 .71
7542563858698 .727742430476588 .737989810295066 .748267121947049 .75855633462294
7 .768839742591203 .779099174892198 .789316916878137 .799474246396245 .809553351
058768 .819537411967668 .829407677726775 .839147733029578 .848739816386601 .8581
67038535146 .867412494795022 .87646034292681 .88529409088499 .893898905631038 .9
0225886977811 .91035897431525 .918185231415351 .925724246907883 .932961415624271
 .939885280166787 .946482310104858 .952740854169307 .958650896706244 .9642003463
54315 .969380088477842 .974180999787202 .978593886074329 .982610718926508 .98622
4789388872 .989429519415983 .992218676334409 .994587201546721 .996531006378436 .
998046414234121 .999130930442051 .999782472590681 1 1.00021752740932 1.000869069
55795 1.00195358576588 67 255 35 70 0 39 0 40 0 +24 0 0 -1 .002064801356506655 1
4 255 39 56 41 ?0 12 42 4 35 +0 0 0 12 16 50 255 40 2 0 10 35 13 0 +0 0 .12192 0
 0 1 1 0 0 14 10 46 43 ?44 0 18 4 40 +0 0 44 0 16 50 13 22 0 44 40 5 0 +0 0 0 0
 0 1 1 0 0 14 44 40 45 ?12 10 46 4 13 -0 0 12 10 16 81 255 1 45 117 47 44 48 0 4
3 49 50 14 12 25 49 ?39 44 51 4 5 -0 0 39 44 16 15 255 46 17 0 52 44 53 13 16 8
 0 0 0 0 0 0 7 10 17 52 0 46 52 52 0 20 14 0 0 -15 53 38 0 27 44 0 17 27 0 53 27
 27 0 54 23 0 0 +17 54 0 55 54 54 0 27 23 0 0 -15 55 61 0 54 39 0 17 20 0 56 20
 20 0 52 14 0 0 +15 56 26 0 20 12 0 81 1 49 118 47 12 57 0 45 0 58 15 51 24 0 19
 12 56 17 19 0 51 19 19 0 17 8 0 0 -80 255 1 47 59 60 9000 1 1 1 1 1 1 1 1 0 FFF
FTFTFFFFFFF1 81 1 57 103 61 12 0 49 48 62 63 82 255 1 58 -1199046549 80 1 61 0 6
4 8001 0 0 0 0 3 5 0 0 0 FFFFTFTFFFFFFF2 81 1 48 102 61 44 0 45 65 57 66 81 1 62
 104 61 39 0 41 57 0 67 83 255 3 63 .792156862745098 .819607843137255 .933333333
333333 81 1 41 115 47 39 62 0 0 43 68 83 3 67 .792156862745098 .819607843137255
 .933333333333333 81 1 43 116 47 10 65 0 41 45 69 82 1 68 -1203240853 81 1 65 10
1 61 10 0 43 0 48 70 82 1 69 -1196818325 83 3 70 .792156862745098 .8196078431372
55 .933333333333333 83 3 66 .792156862745098 .819607843137255 .933333333333333 7
9 255 15 64 SDL/TYSA_COLOUR79 14 60 SWEntUnchanged82 1 50 -1197342613 15 18 3 0
 17 10 71 15 71 43 0 72 10 0 17 72 0 71 72 72 0 34 21 0 0 -17 34 0 42 34 34 0 72
 21 0 0 +15 42 60 0 34 39 55 19 11 30 0 1 0 7 4 S0 74 4 CI16 index_map_offset0 0
 1 dCCZ20 9 2 0 0 49 62 0 0 0 0 0 0 0 0 0 0 0 0 0 0 0 0 0 0 1 0 
