**ABCDEFGHIJKLMNOPQRSTUVWXYZabcdefghijklmnopqrstuvwxyz**************************
**PARASOLID !"#$%&'()*+,-./:;<=>?@[\]^_`{|}~0123456789**************************
**PART1;
MC=AMD64;
MC_MODEL=Intel64 Family 6 Model 154 Stepping 3, GenuineIntel;
MC_ID=unknown;
OS=Windows_NT;
OS_RELEASE=unknown;
FRU=Parasolid Version 29.0, build 195, 12- 2-2016;
APPL=SOLIDWORKS 2017-2017109;
SITE=;
USER=unknown;
FORMAT=text;
GUISE=transmit;
KEY=e193_geometry_rectangle;
FILE=e193_geometry_rectangle.x_t;
DATE=Tue Apr 16 22:03:21 2024;
**PART2;
SCH=SCH_2900195_28101;
USFLD_SIZE=0;
**PART3;
**END_OF_HEADER*****************************************************************
T51 : TRANSMIT FILE created by modeller version 290019523 SCH_2900195_28101_1300
6203 0 10 19 CCCCCCCI4 mesh1006 0 I8 polyline1008 0 CCCCCCCCCCZ1 5 2 3 0 0 0 0 0
 0 0 1e3 1e-8 0 0 0 1 0 1 4 81 255 2 2 5 5 1 0 0 0 0 0 0 70 11 CI9 list_type0 0
 1 uI10 notransmit0 0 1 lCCCDCCDI12 finger_index0 0 1 dI12 finger_block1012 0 CZ
3 0 4 T1 0 0 1 20 1 6 6 11 255 4 3 0 1 7 8 1 9 0 0 0 12 33 CCCCCCI4 mesh1006 0 I
8 polyline1008 0 CCCCCCCDI5 owner1040 0 CCCCCCI13 boundary_mesh1006 0 I17 bounda
ry_polyline1008 0 CCCA16 index_map_offset0 0 1 dA9 index_map82 0 A17 node_id_ind
ex_map82 0 A20 schema_embedding_map82 0 A5 child12 0 A14 lowest_node_id0 0 1 dZ7
 20 10 11 0 0 0 0 0 0 1e3 1e-8 4 12 0 1 0 2 1 13 0 14 15 0 0 16 0 17 0 0 0 0 0 0
 100 255 8 4 4 0 0 1 0 0 0 1 0 0 0 1 0 0 0 1 0 ?11 9 1 0 1 12 18 1 0 4 0 0 12 12
 235 19 20 0 0 0 0 0 0 1e3 1e-8 9 21 7 1 0 1 1 22 23 24 25 0 0 26 27 28 0 0 0 0
 0 0 100 18 2 9 0 0 1 0 0 0 1 0 0 0 1 0 0 0 1 0 ?81 1 19 235 29 12 0 0 0 0 0 70
 20 0 4 T12 0 0 3 20 1 30 30 13 255 22 94 0 12 0 31 0 0 32 0 50 255 23 89 0 33 3
4 0 0 +-1.2 -1.5 .03 1 0 0 0 0 -1 30 255 24 93 0 27 35 0 0 +-1.2 -1.5 .03 0 0 -1
 29 255 25 70 0 36 37 0 -1.2 1.5 -.03 19 8 CCCCCCCA5 owner12 0 Z26 28 0 12 32 0
 38 V0 16 255 27 77 0 ?39 0 40 24 0 0 12 18 255 28 25 0 41 0 42 43 ?12 17 255 41
 0 44 45 46 28 47 48 0 49 +18 42 22 0 46 28 50 51 ?12 29 43 27 0 28 51 52 -1.2 1
.5 .03 29 51 24 0 42 53 43 3.3 1.5 .03 29 52 73 0 54 43 55 -1.2 -1.5 -.03 18 54
 64 0 56 57 0 52 ?12 29 55 72 0 57 52 37 3.3 -1.5 -.03 18 57 63 0 58 59 54 55 ?1
2 29 37 71 0 59 55 25 3.3 1.5 -.03 18 59 62 0 60 36 57 37 ?12 17 60 0 61 62 63 5
9 64 65 0 66 +18 36 61 0 67 68 59 25 ?12 17 67 0 69 49 66 36 70 71 0 72 +18 68 1
6 0 73 50 36 74 ?12 17 73 0 75 39 76 68 77 78 0 45 -18 50 19 0 77 42 68 53 ?12 2
9 74 18 0 68 0 53 -1.2 -1.5 .03 29 53 21 0 50 74 51 3.3 -1.5 .03 17 77 0 44 46 4
5 50 73 78 0 76 +15 255 44 3 0 45 31 79 17 46 0 44 41 77 42 80 81 0 62 +17 45 0
 44 77 41 68 82 83 0 84 +16 78 7 0 ?77 81 83 85 0 0 12 17 76 0 75 73 58 50 63 40
 0 80 -15 75 82 0 58 86 0 17 58 0 75 76 39 57 56 87 0 63 +17 63 0 61 60 80 57 76
 40 0 64 +16 40 76 0 ?63 27 88 35 0 0 12 17 80 0 61 63 62 50 46 81 0 0 -15 61 80
 0 60 89 0 17 62 0 61 80 60 42 66 88 0 47 -16 81 10 0 ?46 48 78 90 0 0 12 16 48
 13 0 ?41 91 81 92 0 0 12 30 90 11 0 81 85 92 0 +3.3 1.5 .03 0 1 0 30 85 8 0 78
 93 90 0 +3.3 -1.5 .03 1 986864910777917e-31 0 30 92 14 0 48 90 94 0 +-1.2 1.5 .
03 -1 986864910777917e-31 0 30 94 69 0 95 92 96 0 +-1.2 -1.5 -.03 0 -1 0 16 95 5
7 0 ?97 87 98 94 0 0 12 30 96 68 0 87 94 99 0 +3.3 -1.5 -.03 1 986864910777917e-
31 0 16 87 53 0 ?58 65 95 96 0 0 12 30 99 67 0 65 96 100 0 +3.3 1.5 -.03 0 1 0 1
6 65 49 0 ?60 71 87 99 0 0 12 30 100 66 0 71 99 101 0 +-1.2 1.5 -.03 -1 98686491
0777917e-31 0 16 71 45 0 ?67 83 65 100 0 0 12 30 101 90 0 91 100 102 0 +-1.2 1.5
 .03 0 0 -1 16 91 74 0 ?72 88 48 101 0 0 12 30 102 91 0 88 101 35 0 +3.3 1.5 .03
 0 0 -1 16 88 75 0 ?66 40 91 102 0 0 12 30 35 92 0 40 102 24 0 +3.3 -1.5 .03 0 0
 -1 17 66 0 69 67 47 59 62 88 0 70 +15 69 78 0 67 103 0 17 47 0 69 66 49 42 41 4
8 0 0 -17 70 0 104 64 105 59 67 71 0 0 -15 104 44 0 105 106 107 17 64 0 104 56 7
0 57 60 65 0 0 -17 105 0 104 70 56 36 97 95 0 0 -17 56 0 104 105 64 54 58 87 0 3
9 -17 97 0 108 84 72 54 105 95 0 0 +15 108 84 0 97 33 0 17 84 0 108 82 97 68 39
 27 0 0 -17 72 0 108 97 82 36 49 91 0 105 +17 82 0 108 72 84 28 45 83 0 0 -17 49
 0 69 47 67 28 72 91 0 82 -16 83 4 0 ?45 78 71 93 0 0 12 30 93 5 0 83 109 85 0 +
-1.2 -1.5 .03 0 -1 0 134 255 109 144 0 110 111 93 0 +112 113 16 110 120 0 ?114 9
8 0 109 0 0 12 134 111 145 0 98 0 109 115 +116 117 136 255 112 3 63 3 67 2 TTF1
 118 119 120 135 255 113 2 0 45 255 189 118 .2978112197579195 .00011934942306356
6 -.03 .300551022228361 -526345465619485e-19 -.03 .297856859750338 .000292445736
1176025 -.03 .2957235111652925 .000726892038601411 -.03 .290679302282304 .001679
480421229385 -.03 .2846359596865635 .002897374280723675 -.03 .2768798790458295 .
00434451547557609 -.03 .2678204280476745 .00595277122047384 -.03 .25745538567259
3 .00774224419698835 -.03 .2459678421385545 .0097066181298092 -.03 .233506042755
824 .0117912664082305 -.03 .220251698882361 .01397392138828392 -.03 .20638196198
9243 .01618168418907705 -.03 .192087853073807 .0183684631142761 -.03 .1775586647
46052 .0204566072205481 -.03 .1629700582463245 .0223599488554891 -.03 .148455715
1339728 .02392448235380365 -.03 .1341246041376516 .02506971105114515 -.03 .12006
22444754486 .02573413605461625 -.03 .1063482713846966 .02589797578071215 -.03 .0
930557110970717 .02555539156992735 -.03 .080265928232374 .02472930552016255 -.03
 .068072226575361 .0235171246441329 -.03 .0565871963367384 .02196242685612745 -.
03 .0459259917592067 .02011777957938245 -.03 .03619595437579525 .018018495626338
55 -.03 .02748766289409285 .01571945797363345 -.03 .01988558919085245 .013261539
8947408 -.03 .0134452540215748 .01069960388863144 -.03 .00824407037225589 .00809
833976542841 -.03 .00422106589714552 .00554020578422956 -.03 .001631332115640345
 .003090369577685965 -.03 -.0001755531827596995 .000951021203870357 -.03 .000243
62162350237 -.00156434218405374 -.03 .002944995841657375 -.002756524440923575 -.
03 .00653728526892578 -.00398019808086677 -.03 .01187036708617224 -.004891793693
43395 -.03 .0186191428957802 -.00562028914467634 -.03 .0268721866790343 -.006090
35156959245 -.03 .036521534761817 -.00633881410385371 -.03 .047501784125513 -.00
635678458321491 -.03 .0597032435624576 -.00619345675329997 -.03 .073004439218979
1 -.00586958045111134 -.03 .0872610974217293 -.00541976517230945 -.03 .102313620
5171024 -.00487871635833439 -.03 .1179871222841784 -.004282217578645335 -.03 .13
4096773033089 -.003664032423414215 -.03 .1504464151806095 -.00304805109691009 -.
03 .16683326988255 -.00246374879571803 -.03 .1830522522896965 -.0019282251290863
55 -.03 .1989011809035345 -.001450476518744132 -.03 .2141814076578555 -.00104799
5637822832 -.03 .2286992423005345 -.000713948731240478 -.03 .242271153811748 -.0
00457646544877627 -.03 .2547178261471365 -.000266896562040738 -.03 .265891722206
8905 -.0001450761440926762 -.03 .275612512850038 -58972976194312e-18 -.03 .28389
4928489289 156210954300493e-19 -.03 .290305617376196 .000116640601254722 -.03 .2
955963095211785 899610797481541e-19 -.03 .2978112197579195 .000119349423063566 -
.03 .300551022228361 -526345465619485e-19 -.03 .297856859750338 .000292445736117
6025 -.03 127 255 67 119 1 1 1 1 1 1 1 1 1 1 1 1 1 1 1 1 1 1 1 1 1 1 1 1 1 1 1 1
 1 1 1 1 1 1 1 1 1 1 1 1 1 1 1 1 1 1 1 1 1 1 1 1 1 1 1 1 1 1 1 1 1 1 1 1 1 1 1 1
28 255 67 120 -.0147532326332842 -.00669611929807468 -.00169944491595164 0 .0016
8729220087391 .00661588248411182 .01446555801795944 .0249241981499137 .037799708
5441562 .0529884695039723 .0703168037250743 .0895351086225911 .1103602480291006
 .1325011233310606 .155650768536403 .1794841742549325 .2036729019410035 .2278952
369533455 .251892314116109 .2755168645040985 .2986452837961505 .321169244807871
 .3430052324157435 .3640746928952845 .3842360261994135 .403304982230054 .4211059
94965221 .4374751646985845 .452282795180976 .465414650390337 .476784492986743 .4
86339783512584 .494068892828919 .499998920706757 .50417047164572 .50699716321139
 .511089714620469 .517452454166951 .526208560994422 .537391702367061 .5509622227
45954 .56684131768037 .584909639607616 .60499738601005 .626900912127429 .6503944
80538586 .675201621876448 .701035251973763 .727593371026262 .75454969106252 .781
563238843302 .808298626444608 .834420906260716 .859605071481756 .883531629396658
 .905895720386451 .926412444949588 .944811580614751 .960857577393262 .9743737528
59433 .985246767366716 .993303880701925 .998300555084048 1 1.001687292200874 1.0
06615882484112 1.01446555801796 16 98 124 0 ?121 95 110 111 0 0 12 141 255 115 1
22 115 115 111 136 116 3 63 3 67 2 TTF1 123 124 125 135 117 2 0 45 189 123 .2978
112197579195 .000119349423063566 .03 .300551022228361 -526345465619485e-19 .03 .
297856859750338 .0002924457361176025 .03 .2957235111652925 .000726892038601411 .
03 .290679302282304 .001679480421229385 .03 .2846359596865635 .00289737428072367
5 .03 .2768798790458295 .00434451547557609 .03 .2678204280476745 .00595277122047
384 .03 .257455385672593 .00774224419698835 .03 .2459678421385545 .0097066181298
092 .03 .233506042755824 .0117912664082305 .03 .220251698882361 .013973921388283
92 .03 .206381961989243 .01618168418907705 .03 .192087853073807 .018368463114276
1 .03 .177558664746052 .0204566072205481 .03 .1629700582463245 .0223599488554891
 .03 .1484557151339728 .02392448235380365 .03 .1341246041376516 .025069711051145
15 .03 .1200622444754486 .02573413605461625 .03 .1063482713846966 .0258979757807
1215 .03 .0930557110970717 .02555539156992735 .03 .080265928232374 .024729305520
16255 .03 .068072226575361 .0235171246441329 .03 .0565871963367384 .021962426856
12745 .03 .0459259917592067 .02011777957938245 .03 .03619595437579525 .018018495
62633855 .03 .02748766289409285 .01571945797363345 .03 .01988558919085245 .01326
15398947408 .03 .0134452540215748 .01069960388863144 .03 .00824407037225589 .008
09833976542841 .03 .00422106589714552 .00554020578422956 .03 .001631332115640345
 .003090369577685965 .03 -.0001755531827596995 .000951021203870357 .03 .00024362
162350237 -.00156434218405374 .03 .002944995841657375 -.002756524440923575 .03 .
00653728526892578 -.00398019808086677 .03 .01187036708617224 -.00489179369343395
 .03 .0186191428957802 -.00562028914467634 .03 .0268721866790343 -.0060903515695
9245 .03 .036521534761817 -.00633881410385371 .03 .047501784125513 -.00635678458
321491 .03 .0597032435624576 -.00619345675329997 .03 .0730044392189791 -.0058695
8045111134 .03 .0872610974217293 -.00541976517230945 .03 .1023136205171024 -.004
87871635833439 .03 .1179871222841784 -.004282217578645335 .03 .134096773033089 -
.003664032423414215 .03 .1504464151806095 -.00304805109691009 .03 .1668332698825
5 -.00246374879571803 .03 .1830522522896965 -.001928225129086355 .03 .1989011809
035345 -.001450476518744132 .03 .2141814076578555 -.001047995637822832 .03 .2286
992423005345 -.000713948731240478 .03 .242271153811748 -.000457646544877627 .03
 .2547178261471365 -.000266896562040738 .03 .2658917222068905 -.0001450761440926
762 .03 .275612512850038 -58972976194312e-18 .03 .283894928489289 15621095430049
3e-19 .03 .290305617376196 .000116640601254722 .03 .2955963095211785 89961079748
1541e-19 .03 .2978112197579195 .000119349423063566 .03 .300551022228361 -5263454
65619485e-19 .03 .297856859750338 .0002924457361176025 .03 127 67 124 1 1 1 1 1
 1 1 1 1 1 1 1 1 1 1 1 1 1 1 1 1 1 1 1 1 1 1 1 1 1 1 1 1 1 1 1 1 1 1 1 1 1 1 1 1
 1 1 1 1 1 1 1 1 1 1 1 1 1 1 1 1 1 1 1 1 1 1 128 67 125 -.0147532326332842 -.006
69611929807468 -.00169944491595164 0 .00168729220087391 .00661588248411182 .0144
6555801795944 .0249241981499137 .0377997085441562 .0529884695039723 .07031680372
50743 .0895351086225911 .1103602480291006 .1325011233310606 .155650768536403 .17
94841742549325 .2036729019410035 .2278952369533455 .251892314116109 .27551686450
40985 .2986452837961505 .321169244807871 .3430052324157435 .3640746928952845 .38
42360261994135 .403304982230054 .421105994965221 .4374751646985845 .452282795180
976 .465414650390337 .476784492986743 .486339783512584 .494068892828919 .4999989
20706757 .50417047164572 .50699716321139 .511089714620469 .517452454166951 .5262
08560994422 .537391702367061 .550962222745954 .56684131768037 .584909639607616 .
60499738601005 .626900912127429 .650394480538586 .675201621876448 .7010352519737
63 .727593371026262 .75454969106252 .781563238843302 .808298626444608 .834420906
260716 .859605071481756 .883531629396658 .905895720386451 .926412444949588 .9448
11580614751 .960857577393262 .974373752859433 .985246767366716 .993303880701925
 .998300555084048 1 1.001687292200874 1.006615882484112 1.01446555801796 67 255
 122 141 0 126 0 127 0 +111 0 0 -1 .0026174867991778 14 255 126 127 128 ?0 103 1
29 22 122 +0 0 0 103 38 50 127 2 0 31 122 130 0 +0 0 .03 0 0 -1 -1 0 0 14 31 117
 131 ?106 0 44 22 127 -0 0 106 0 38 50 130 65 0 106 127 132 0 +0 0 -.03 0 0 -1 -
1 0 0 14 106 111 133 ?33 31 104 22 130 +0 0 33 31 38 50 132 86 0 103 130 134 0 +
-1.2 1.5 .03 -986864910777917e-31 -1 0 1 -986864910777917e-31 0 14 103 79 135 ?1
26 89 69 22 132 -0 0 126 89 38 50 134 87 0 89 132 34 0 +3.3 1.5 .03 -1 0 0 0 0 1
 14 89 81 136 ?103 86 61 22 134 -0 0 103 86 38 50 34 88 0 86 134 23 0 +3.3 -1.5
 .03 -986864910777917e-31 1 0 -1 -986864910777917e-31 0 14 86 83 137 ?89 33 75 2
2 34 -0 0 89 33 38 81 1 137 233 138 86 139 0 136 140 141 14 33 85 140 ?86 106 10
8 22 23 -0 0 86 106 38 13 38 29 0 0 0 0 0 0 26 31 81 1 140 234 138 33 142 0 137
 0 143 80 255 1 138 144 145 9000 1 1 1 1 1 1 1 1 0 FFFFTFTFFFFFFF1 81 1 142 207
 146 33 0 140 147 139 148 82 255 1 143 983826549 80 1 146 0 149 8001 0 0 0 0 3 5
 0 0 0 FFFFTFTFFFFFFF2 81 1 147 206 146 106 0 133 150 142 151 81 1 139 208 146 8
6 0 137 142 152 153 83 255 3 148 .792156862745098 .819607843137255 .933333333333
333 81 1 152 209 146 89 0 136 139 154 155 83 3 153 .792156862745098 .81960784313
7255 .933333333333333 81 1 136 232 138 89 152 0 135 137 156 81 1 154 210 146 103
 0 135 152 157 158 83 3 155 .792156862745098 .819607843137255 .933333333333333 8
1 1 135 231 138 103 154 0 133 136 159 81 1 157 211 146 126 0 128 154 0 160 83 3
 158 .792156862745098 .819607843137255 .933333333333333 81 1 128 228 138 126 157
 0 0 131 161 83 3 160 .792156862745098 .819607843137255 .933333333333333 81 1 13
1 229 138 31 150 0 128 133 162 82 1 161 972750965 81 1 150 205 146 31 0 131 0 14
7 163 81 1 133 230 138 106 147 0 131 135 164 82 1 162 986775669 82 1 164 9862513
81 83 3 163 .792156862745098 .819607843137255 .933333333333333 82 1 159 98304011
7 82 1 156 983302261 83 3 151 .792156862745098 .819607843137255 .933333333333333
 79 255 15 149 SDL/TYSA_COLOUR79 14 145 SWEntUnchanged82 1 141 983564405 15 129
 131 0 121 126 165 17 121 0 129 121 121 0 166 98 0 0 +15 165 132 0 167 126 0 17
 167 0 165 167 167 0 114 110 0 0 -17 114 0 107 114 114 0 167 110 0 0 +15 107 108
 0 114 106 0 17 166 0 79 166 166 0 121 98 0 0 -15 79 115 0 166 31 0 17 39 0 75 5
8 73 54 84 27 0 97 +19 32 95 0 12 0 26 22 S0 74 4 CI16 index_map_offset0 0 1 dCC
Z20 30 3 0 0 140 157 19 0 0 0 0 0 0 0 0 0 0 0 0 0 0 0 0 0 80 1 29 168 169 8017 0
 0 0 0 0 0 0 0 0 TTTTTTTTTTTTTF3 79 13 169 SDL/TYSA_NAME81 1 10 20 29 7 0 0 0 0
 0 70 11 0 4 T7 0 0 1 20 1 170 170 13 13 3 0 7 0 0 171 0 16 0 134 14 6 0 171 0 0
 0 +172 173 29 15 4 0 17 0 0 .3 -33881317890172e-34 0 19 16 1 0 7 0 0 13 V0 18 1
7 2 0 174 0 0 15 ?7 17 174 0 0 0 0 17 175 171 0 175 +17 175 0 0 0 0 17 174 171 0
 0 -16 171 5 0 ?174 0 0 14 0 0 13 136 172 3 63 3 67 2 TTF1 176 177 178 135 173 2
 0 45 189 176 .2978112197579195 .000119349423063566 0 .300551022228361 -52634546
5619485e-19 0 .297856859750338 .0002924457361176025 0 .2957235111652925 .0007268
92038601411 0 .290679302282304 .001679480421229385 0 .2846359596865635 .00289737
4280723675 0 .2768798790458295 .00434451547557609 0 .2678204280476745 .005952771
22047384 0 .257455385672593 .00774224419698835 0 .2459678421385545 .009706618129
8092 0 .233506042755824 .0117912664082305 0 .220251698882361 .01397392138828392
 0 .206381961989243 .01618168418907705 0 .192087853073807 .0183684631142761 0 .1
77558664746052 .0204566072205481 0 .1629700582463245 .0223599488554891 0 .148455
7151339728 .02392448235380365 0 .1341246041376516 .02506971105114515 0 .12006224
44754486 .02573413605461625 0 .1063482713846966 .02589797578071215 0 .0930557110
970717 .02555539156992735 0 .080265928232374 .02472930552016255 0 .0680722265753
61 .0235171246441329 0 .0565871963367384 .02196242685612745 0 .0459259917592067
 .02011777957938245 0 .03619595437579525 .01801849562633855 0 .02748766289409285
 .01571945797363345 0 .01988558919085245 .0132615398947408 0 .0134452540215748 .
01069960388863144 0 .00824407037225589 .00809833976542841 0 .00422106589714552 .
00554020578422956 0 .001631332115640345 .003090369577685965 0 -.0001755531827596
995 .000951021203870357 0 .00024362162350237 -.00156434218405374 0 .002944995841
657375 -.002756524440923575 0 .00653728526892578 -.00398019808086677 0 .01187036
708617224 -.00489179369343395 0 .0186191428957802 -.00562028914467634 0 .0268721
866790343 -.00609035156959245 0 .036521534761817 -.00633881410385371 0 .04750178
4125513 -.00635678458321491 0 .0597032435624576 -.00619345675329997 0 .073004439
2189791 -.00586958045111134 0 .0872610974217293 -.00541976517230945 0 .102313620
5171024 -.00487871635833439 0 .1179871222841784 -.004282217578645335 0 .13409677
3033089 -.003664032423414215 0 .1504464151806095 -.00304805109691009 0 .16683326
988255 -.00246374879571803 0 .1830522522896965 -.001928225129086355 0 .198901180
9035345 -.001450476518744132 0 .2141814076578555 -.001047995637822832 0 .2286992
423005345 -.000713948731240478 0 .242271153811748 -.000457646544877627 0 .254717
8261471365 -.000266896562040738 0 .2658917222068905 -.0001450761440926762 0 .275
612512850038 -58972976194312e-18 0 .283894928489289 156210954300493e-19 0 .29030
5617376196 .000116640601254722 0 .2955963095211785 899610797481541e-19 0 .297811
2197579195 .000119349423063566 0 .300551022228361 -526345465619485e-19 0 .297856
859750338 .0002924457361176025 0 127 67 177 1 1 1 1 1 1 1 1 1 1 1 1 1 1 1 1 1 1
 1 1 1 1 1 1 1 1 1 1 1 1 1 1 1 1 1 1 1 1 1 1 1 1 1 1 1 1 1 1 1 1 1 1 1 1 1 1 1 1
 1 1 1 1 1 1 1 1 1 128 67 178 -.0147532326332842 -.00669611929807468 -.001699444
91595164 0 .00168729220087391 .00661588248411182 .01446555801795944 .02492419814
99137 .0377997085441562 .0529884695039723 .0703168037250743 .0895351086225911 .1
103602480291006 .1325011233310606 .155650768536403 .1794841742549325 .2036729019
410035 .2278952369533455 .251892314116109 .2755168645040985 .2986452837961505 .3
21169244807871 .3430052324157435 .3640746928952845 .3842360261994135 .4033049822
30054 .421105994965221 .4374751646985845 .452282795180976 .465414650390337 .4767
84492986743 .486339783512584 .494068892828919 .499998920706757 .50417047164572 .
50699716321139 .511089714620469 .517452454166951 .526208560994422 .5373917023670
61 .550962222745954 .56684131768037 .584909639607616 .60499738601005 .6269009121
27429 .650394480538586 .675201621876448 .701035251973763 .727593371026262 .75454
969106252 .781563238843302 .808298626444608 .834420906260716 .859605071481756 .8
83531629396658 .905895720386451 .926412444949588 .944811580614751 .9608575773932
62 .974373752859433 .985246767366716 .993303880701925 .998300555084048 1 1.00168
7292200874 1.006615882484112 1.01446555801796 74 20 170 1 0 0 10 0 0 0 0 0 0 0 0
 0 0 0 0 0 0 0 0 0 0 0 74 20 6 1 0 0 2 0 0 0 0 0 0 0 0 0 0 0 0 0 0 0 0 0 0 0 80
 2 5 179 180 9000 0 0 0 0 3 5 0 0 0 TFFFFFFFFFFFFF9 1 79 18 180 MULTI_BODY_ID_20
011 0 
